<svg xmlns="http://www.w3.org/2000/svg" viewBox="0 0 24 24" fill="none" aria-hidden="true">
  <path
    d="M12 15.2a3.2 3.2 0 1 0 0-6.4 3.2 3.2 0 0 0 0 6.4Z"
    stroke="currentColor"
    stroke-width="1.7"
  />
  <path
    d="M19.4 13.1a7.6 7.6 0 0 0 .05-1.1 7.6 7.6 0 0 0-.05-1.1l2.05-1.6a.5.5 0 0 0 .12-.63l-1.95-3.37a.5.5 0 0 0-.6-.22l-2.42.97a7.3 7.3 0 0 0-1.9-1.1L14.4 2.5a.5.5 0 0 0-.5-.4h-3.9a.5.5 0 0 0-.5.4l-.37 2.55a7.3 7.3 0 0 0-1.9 1.1l-2.42-.97a.5.5 0 0 0-.6.22L2.36 8.77a.5.5 0 0 0 .12.63l2.05 1.6a7.6 7.6 0 0 0-.05 1.1c0 .37.02.74.05 1.1l-2.05 1.6a.5.5 0 0 0-.12.63l1.95 3.37a.5.5 0 0 0 .6.22l2.42-.97c.58.45 1.22.82 1.9 1.1l.37 2.55a.5.5 0 0 0 .5.4h3.9a.5.5 0 0 0 .5-.4l.37-2.55a7.3 7.3 0 0 0 1.9-1.1l2.42.97a.5.5 0 0 0 .6-.22l1.95-3.37a.5.5 0 0 0-.12-.63l-2.05-1.6Z"
    stroke="currentColor"
    stroke-width="1.5"
    stroke-linejoin="round"
  />
</svg>
